# xmcd
#
# Track frame offsets:
#	150
#	11846
#	24267
#	36756
#	49553
#	66505
#	77856
#	87853
#	98671
#	108731
#	120106
#	128481
#	142504
#	155497
#	169258
#	190583
#	205341
#	218128
#	233082
#	248651
#	266040
#
# Disc length: 3765 seconds
#
# Revision: 3
# Processed by: cddbd v1.5.1PL2 Copyright (c) Steve Scherf et al.
# Submitted via: EasyCDDAExtractor 9.0.0.1
#
DISCID=0e0eb315
DTITLE=Johnny Cash - Ring Of Fire - The Legend Of Johnny Cash
DYEAR=2005
DGENRE=Country
TTITLE0=Ring Of Fire
TTITLE1=I Walk The Line
TTITLE2=Jackson
TTITLE3=Folsom Prison Blues
TTITLE4=A Boy Name Sue (Live)
TTITLE5=Big River
TTITLE6=Get Rhythm
TTITLE7=Cry! Cry! Cry!
TTITLE8=Hey Porter
TTITLE9=A Thing Called Love
TTITLE10=Guess Things Happen That Way
TTITLE11=San Quentin (Live)
TTITLE12=Man In Black
TTITLE13=Highwayman
TTITLE14=The Wanderer (U2 Starring Johnny Cash)
TTITLE15=I've Been Everywhere
TTITLE16=Rusty Cage
TTITLE17=Personal Jesus
TTITLE18=Give My Love To Rose
TTITLE19=One
TTITLE20=Hurt
EXTD=YEAR: 2005
EXTT0=
EXTT1=
EXTT2=
EXTT3=
EXTT4=
EXTT5=
EXTT6=
EXTT7=
EXTT8=
EXTT9=
EXTT10=
EXTT11=
EXTT12=
EXTT13=
EXTT14=
EXTT15=
EXTT16=
EXTT17=
EXTT18=
EXTT19=
EXTT20=
PLAYORDER=
